<svg t="1753935436624" class="icon" viewBox="0 0 1024 1024" version="1.1" xmlns="http://www.w3.org/2000/svg" p-id="6693" width="200" height="200"><path d="M527.36 133.12c-53.76 23.04-71.68 98.56-71.68 98.56s67.84 39.68 120.32 16.64c53.76-23.04 71.68-98.56 71.68-98.56s-66.56-39.68-120.32-16.64z" fill="#FFFFFF" p-id="6694"></path><path d="M579.84 184.32c-53.76 23.04-71.68 98.56-71.68 98.56s67.84 39.68 120.32 16.64c53.76-23.04 71.68-98.56 71.68-98.56s-67.84-38.4-120.32-16.64z" fill="#00C19C" p-id="6695"></path><path d="M540.16 271.36c-47.36 0-89.6-24.32-92.16-26.88-6.4-3.84-8.96-10.24-7.68-17.92 1.28-3.84 21.76-84.48 81.92-108.8 60.16-25.6 131.84 16.64 134.4 17.92 6.4 3.84 8.96 10.24 7.68 17.92-1.28 3.84-21.76 84.48-81.92 108.8-14.08 6.4-28.16 8.96-42.24 8.96z m-65.28-48.64c19.2 8.96 61.44 24.32 94.72 10.24s51.2-55.04 58.88-75.52c-19.2-8.96-61.44-24.32-94.72-10.24-33.28 14.08-51.2 55.04-58.88 75.52z" fill="#7F0D0D" p-id="6696"></path><path d="M472.32 898.56c6.4 3.84 14.08 3.84 19.2 0 60.16-40.96 272.64-49.92 308.48-275.2 40.96-256-176.64-395.52-318.72-268.8-142.08-125.44-358.4 14.08-318.72 268.8C199.68 848.64 412.16 857.6 472.32 898.56z" fill="#FFFFFF" p-id="6697"></path><path d="M524.8 949.76c6.4 3.84 14.08 3.84 19.2 0 60.16-40.96 272.64-49.92 308.48-275.2 40.96-256-176.64-395.52-318.72-268.8-142.08-125.44-358.4 14.08-318.72 268.8C252.16 899.84 464.64 910.08 524.8 949.76z" fill="#FEB06E" p-id="6698"></path><path d="M482.56 917.76c-6.4 0-12.8-2.56-19.2-6.4-12.8-7.68-33.28-15.36-58.88-24.32-84.48-29.44-226.56-79.36-256-262.4-21.76-135.68 26.88-257.28 124.16-311.04 69.12-37.12 148.48-30.72 209.92 17.92 62.72-48.64 142.08-55.04 209.92-17.92 97.28 53.76 145.92 175.36 124.16 311.04-29.44 183.04-171.52 231.68-256 262.4-25.6 8.96-46.08 16.64-58.88 24.32-6.4 5.12-12.8 6.4-19.2 6.4z m-1.28-32h1.28c15.36-10.24 39.68-19.2 66.56-28.16 88.32-30.72 208.64-72.96 235.52-236.8 23.04-148.48-43.52-241.92-107.52-276.48-61.44-33.28-130.56-25.6-184.32 23.04-6.4 5.12-15.36 5.12-21.76 0-53.76-47.36-122.88-56.32-184.32-23.04-64 35.84-130.56 129.28-107.52 277.76 25.6 163.84 147.2 206.08 235.52 236.8 28.16 7.68 51.2 15.36 66.56 26.88z" fill="#7F0D0D" p-id="6699"></path><path d="M482.56 762.88c-56.32 0-128-74.24-128-158.72 0-47.36 11.52-85.76 32-113.92 5.12-7.68 15.36-8.96 23.04-2.56 7.68 5.12 8.96 15.36 2.56 23.04-16.64 21.76-25.6 53.76-25.6 93.44 0 72.96 62.72 125.44 96 125.44s96-53.76 96-125.44c0-47.36-12.8-125.44-96-125.44-8.96 0-16.64-7.68-16.64-16.64s7.68-16.64 16.64-16.64c80.64 0 128 58.88 128 158.72 0 84.48-71.68 158.72-128 158.72z" fill="#7F0D0D" p-id="6700"></path><path d="M509.44 656.64h-3.84c-8.96-2.56-14.08-11.52-11.52-19.2 2.56-10.24 3.84-21.76 3.84-32 0-19.2-2.56-37.12-6.4-52.48-2.56-8.96 2.56-17.92 11.52-19.2 8.96-2.56 17.92 2.56 19.2 11.52 5.12 17.92 6.4 38.4 6.4 60.16 0 14.08-1.28 26.88-5.12 40.96 0 5.12-7.68 10.24-14.08 10.24zM364.8 147.2c-2.56 0-6.4-1.28-8.96-2.56-2.56-1.28-5.12-3.84-7.68-5.12-7.68-3.84-10.24-14.08-6.4-21.76 3.84-7.68 14.08-10.24 21.76-6.4 3.84 2.56 7.68 3.84 10.24 6.4 7.68 5.12 8.96 15.36 5.12 21.76-2.56 5.12-7.68 7.68-14.08 7.68z" fill="#7F0D0D" p-id="6701"></path><path d="M483.84 369.92c-8.96 0-16.64-7.68-16.64-16.64 0-87.04-49.92-151.04-71.68-174.08-6.4-6.4-5.12-16.64 1.28-23.04s16.64-5.12 23.04 1.28C444.16 184.32 499.2 256 499.2 353.28c0 8.96-6.4 16.64-15.36 16.64z" fill="#7F0D0D" p-id="6702"></path></svg>